# xmcd
#
# Track frame offsets: 
#        150
#        16861
#        29977
#        43396
#        52977
#        64111
#        77572
#        89874
#        107218
#        119671
#        135470
#        151194
#        164306
#        181846
#        191535
#        205097
#        221882
#        234272
#        249257
#        263769
#
# Disc length: 3682 seconds
#
# Revision: 0
# Processed by: cddbd v1.5.2PL0 Copyright (c) Steve Scherf et al.
# Submitted via: ExactAudioCopyFreeDBPlugin 1.0
#
DISCID=1a0e6014
DTITLE=Dionne Warwick - I'll Never Fall In Love Again
DYEAR=1970
DGENRE=Soul
TTITLE0=The Wine Is Young
TTITLE1=I'll Never Fall In Love Again
TTITLE2=Raindrops Keep Falling On My Head
TTITLE3=Lonliness Remembers What Happiness Forgets
TTITLE4=Something
TTITLE5=Paper Maché
TTITLE6=Knowing When To Leave
TTITLE7=Let Me Go To Him
TTITLE8=Didn't We
TTITLE9=My Way
TTITLE10=They Say It's Wonderful [Bonus Track]
TTITLE11=I'll Never Fall In Love Again (Single Mono Version) [Bonus Tr
TTITLE11=ack]
TTITLE12=Let Me Go To Him (Single Mono Version) [Bonus Track]
TTITLE13=Lonliness Remembers What Happiness Forgets (Single Mono Versi
TTITLE13=on) [Bonus Track]
TTITLE14=Paper Maché (Single Mono Version) [Bonus Track]
TTITLE15=The Wine Is Young (Single Mono Version) [Bonus Track]
TTITLE16=Knowing When To Leave (Single Mono Version) [Bonus Track]
TTITLE17=The April Fools (Single Mono Version) [Bonus Track]
TTITLE18=Slaves (Single Mono Version) [Bonus Track]
TTITLE19=The Look Of Love (Single Mono Version) [Bonus Track]
EXTD=
EXTT0=
EXTT1=
EXTT2=
EXTT3=
EXTT4=
EXTT5=
EXTT6=
EXTT7=
EXTT8=
EXTT9=
EXTT10=
EXTT11=
EXTT12=
EXTT13=
EXTT14=
EXTT15=
EXTT16=
EXTT17=
EXTT18=
EXTT19=
PLAYORDER=
